# xmcd
#
# Track frame offsets:
#	182
#	23302
#	44200
#	64645
#	84120
#	100242
#	119147
#	138502
#	152830
#
# Disc length: 2286 seconds
#
# Revision: 0
# Processed by: cddbd v1.5.2PL0 Copyright (c) Steve Scherf et al.
# Submitted via: EasyCDDAExtractor 12.0.0.1
#
DISCID=7208ec09
DTITLE=Yolandita Monge - Mi Mejor Regalo
DYEAR=1992
DGENRE=Latin
TTITLE0=Regalo De Navidad
TTITLE1=En Un Burrito Orejon
TTITLE2=Marinero
TTITLE3=Los Reyes No Llegaron
TTITLE4=Triste Navidad
TTITLE5=El Buen Yaucano
TTITLE6=Todo Lo Que Tengo
TTITLE7=La Peregrinacion
TTITLE8=Esta Navidad
EXTD=
EXTT0=
EXTT1=
EXTT2=
EXTT3=
EXTT4=
EXTT5=
EXTT6=
EXTT7=
EXTT8=
PLAYORDER=
